<svg width="219" height="38" viewBox="0 0 219 38" fill="none" xmlns="http://www.w3.org/2000/svg">
<path d="M38 5.26886V32.7311C38 35.6391 35.6391 38 32.7311 38H5.26886C2.36088 38 0 35.6391 0 32.7311V5.26886C0 2.36088 2.36088 0 5.26886 0H32.7311C35.6391 0 38 2.36088 38 5.26886Z" fill="#2C80FF"/>
<path d="M28.4792 12.6667C28.4792 14.415 27.0639 15.8304 25.3214 15.8304H23.2163C22.6751 15.8304 22.2351 16.2348 22.1696 16.7581C22.1637 16.7997 22.1637 16.8413 22.1637 16.883V25.3333C22.1637 27.0758 20.7484 28.4911 19.006 28.4911C17.2635 28.4911 15.8482 27.0758 15.8482 25.3333V16.883C15.8482 16.3002 15.3784 15.8304 14.7956 15.8304H12.6905C10.9481 15.8304 9.53271 14.415 9.53271 12.6667C9.53271 10.9243 10.9481 9.50299 12.6905 9.50299H25.3333C27.0639 9.50299 28.4792 10.9183 28.4792 12.6667Z" fill="#FCFCFC"/>
<path d="M55.8466 12.7441H54.0906C53.432 12.7441 53.3223 13.0734 53.3223 13.6222V15.4879L49.481 15.2684V9.23206H67.3706V15.2684L63.5293 15.4879V13.6222C63.5293 13.0734 63.3098 12.7441 62.761 12.7441H61.1147V26.5729L63.3098 26.6827V29.646H53.6515V26.6827L55.0783 26.5729C55.7368 26.5729 55.8466 26.3534 55.8466 25.5852V12.7441Z" fill="#2A292C"/>
<path d="M83.7235 25.8046C83.7235 26.4631 83.8333 26.6826 84.382 26.7924L85.26 26.9021V29.646H79.1139V27.6704H79.0042C78.1261 29.0972 76.5896 30.085 74.5043 30.085C71.3215 30.085 69.785 28.4387 69.785 24.9266V17.9024C69.785 17.2439 69.5655 17.0244 69.0167 17.0244L68.1387 16.9147V13.9514H74.8336V23.8291C74.8336 25.2559 75.1628 26.0241 76.4799 26.0241C77.6871 26.0241 78.5652 25.0363 78.5652 23.6096V17.9024C78.5652 17.2439 78.3456 17.0244 77.7969 17.0244L77.1384 16.9147V13.9514H83.6138V25.8046H83.7235Z" fill="#2A292C"/>
<path d="M94.5893 16.9146C93.4918 16.9146 92.8333 17.3536 92.8333 18.2316C92.8333 19.3291 94.1503 19.6584 95.6868 20.0974C97.8819 20.7559 100.296 21.5242 100.296 24.707C100.296 28.1093 97.5526 30.0849 93.382 30.0849C91.626 30.0849 89.2114 29.7556 87.7847 28.9873V24.707L91.187 24.4875V25.6948C91.187 26.1338 91.2967 26.3533 91.626 26.463C91.9553 26.5728 92.504 26.6825 93.1625 26.6825C94.3698 26.6825 95.1381 26.2435 95.1381 25.2558C95.1381 24.1582 93.9308 23.9387 92.3943 23.6095C90.1992 23.0607 87.8944 22.2925 87.8944 18.8901C87.8944 15.4878 90.748 13.622 94.6991 13.622C96.3454 13.622 98.2111 13.9513 99.7477 14.7195V18.7804L96.3454 18.9999V17.9024C96.3454 17.4633 96.2356 17.2438 95.9063 17.1341C95.4673 17.0243 95.0283 16.9146 94.5893 16.9146Z" fill="#2A292C"/>
<path d="M109.735 16.9146C108.637 16.9146 107.979 17.3536 107.979 18.2316C107.979 19.3291 109.296 19.6584 110.832 20.0974C113.027 20.7559 115.442 21.5242 115.442 24.707C115.442 28.1093 112.698 30.0849 108.528 30.0849C106.772 30.0849 104.357 29.7556 102.93 28.9873V24.707L106.332 24.4875V25.6948C106.332 26.1338 106.442 26.3533 106.772 26.463C107.101 26.5728 107.65 26.6825 108.308 26.6825C109.515 26.6825 110.284 26.2435 110.284 25.2558C110.284 24.1582 109.076 23.9387 107.54 23.6095C105.345 23.0607 103.04 22.2925 103.04 18.8901C103.04 15.4878 105.893 13.622 109.845 13.622C111.491 13.622 113.357 13.9513 114.893 14.7195V18.7804L111.491 18.9999V17.9024C111.491 17.4633 111.381 17.2438 111.052 17.1341C110.613 17.0243 110.174 16.9146 109.735 16.9146Z" fill="#2A292C"/>
<path d="M131.137 18.2318C131.137 22.6219 127.405 23.7194 122.796 23.6097C122.905 25.0365 123.893 26.2437 125.869 26.2437C127.405 26.2437 128.832 25.695 129.82 25.0365L131.137 28.4388C131.027 28.5485 128.613 30.0851 125.21 30.0851C119.832 30.0851 117.747 26.7925 117.747 22.1829C117.747 17.5733 120.491 13.5125 125.759 13.5125C128.942 13.6222 131.137 15.049 131.137 18.2318ZM125.43 17.244C123.783 17.244 122.796 18.6708 122.686 20.6464C125.43 20.7561 126.747 19.9878 126.747 18.5611C126.747 17.5733 126.198 17.244 125.43 17.244Z" fill="#2A292C"/>
<path d="M135.197 17.9025C135.197 17.244 134.978 17.0245 134.429 17.0245L133.332 16.9148V13.9515H139.807V15.927H139.917C140.685 14.7197 142.112 13.5125 144.417 13.5125C147.27 13.5125 149.026 14.9392 149.026 18.7806V26.6827L150.563 26.7925V29.6461H142.77V26.7925L143.429 26.6827C143.758 26.6827 143.868 26.573 143.978 26.0242V19.8781C143.978 18.4513 143.648 17.683 142.331 17.683C141.014 17.683 140.356 18.7806 140.356 20.0976V26.7925L141.673 26.9023V29.7558H133.551V27.012L134.649 26.9023C135.197 26.9023 135.307 26.6827 135.307 25.9145V17.9025H135.197Z" fill="#2A292C"/>
<path d="M167.685 26.7923L168.563 26.9021V29.6459H163.075L162.856 28.2191H162.746C161.868 29.5362 160.441 30.0849 158.795 30.0849C154.075 30.0849 152.758 26.4631 152.758 22.512C152.758 17.6829 155.283 13.6221 159.892 13.6221C160.551 13.6221 161.319 13.7318 161.978 13.9513V11.7563C161.978 11.2075 161.758 10.8782 161.209 10.8782L160.221 10.7685V7.80518H167.026V25.9143C167.026 26.5728 167.136 26.7923 167.685 26.7923ZM161.978 24.7071V17.5731C161.648 17.3536 161.099 17.2439 160.551 17.2439C158.465 17.2439 157.807 19.5487 157.807 22.073C157.807 24.5973 158.356 26.4631 160.221 26.4631C161.429 26.4631 161.978 25.5851 161.978 24.7071Z" fill="#2A292C"/>
<path d="M178.44 13.622C180.855 13.622 185.684 14.2805 185.684 21.5242C185.684 27.5606 182.611 30.1946 178.001 30.1946C173.392 30.1946 170.758 27.6703 170.758 22.0729C170.758 15.378 175.038 13.622 178.44 13.622ZM180.416 21.9632C180.416 18.7804 179.977 17.3536 178.221 17.3536C176.575 17.3536 176.026 18.7804 176.026 21.4144C176.026 24.1582 176.355 26.3533 178.221 26.3533C179.758 26.3533 180.416 24.8168 180.416 21.9632Z" fill="#2A292C"/>
<path d="M195.781 13.622C198.196 13.622 203.025 14.2805 203.025 21.5242C203.025 27.5606 199.952 30.1946 195.342 30.1946C190.733 30.1946 188.099 27.6703 188.099 22.0729C188.099 15.378 192.489 13.622 195.781 13.622ZM197.757 21.9632C197.757 18.7804 197.318 17.3536 195.562 17.3536C193.916 17.3536 193.367 18.7804 193.367 21.4144C193.367 24.1582 193.696 26.3533 195.562 26.3533C197.098 26.3533 197.757 24.8168 197.757 21.9632Z" fill="#2A292C"/>
<path d="M212.024 19.9877V26.6826L214.658 26.7923V29.6459H205.22V26.9021L206.208 26.7923C206.866 26.7923 206.976 26.463 206.976 25.8045V17.9024C206.976 17.2438 206.756 17.0243 206.317 17.0243L205.22 16.9146V13.9513H211.585V16.3658H211.695C212.134 15.2683 213.451 13.622 216.085 13.622C216.963 13.622 218.061 13.7318 218.939 14.061V20.0974L214.878 20.3169V18.2316C214.878 17.7926 214.878 17.6828 214.658 17.5731C214.549 17.4633 214.329 17.4633 214 17.4633C212.683 17.4633 212.024 18.5609 212.024 19.9877Z" fill="#2A292C"/>
</svg>
